<svg width="201" height="201" viewBox="0 0 201 201" fill="none" xmlns="http://www.w3.org/2000/svg">
<rect width="200.52" height="200.52" fill="#111111"/>
<g clip-path="url(#clip0_45_123)">
<path d="M126.28 136.06C141.79 124.79 148.28 104.81 142.36 86.58C136.43 68.35 119.43 56 100.26 56C81.09 56 64.09 68.35 58.17 86.58C52.25 104.82 58.74 124.79 74.25 136.06C89.76 147.33 110.77 147.33 126.28 136.06Z" fill="#111111"/>
<path d="M123.79 74.21C123.44 73.94 123.05 73.94 122.62 73.93C121.01 73.93 117.11 73.93 112.23 73.93C100.23 73.93 83.64 73.92 78.6 73.93C78.11 73.94 77.78 73.97 77.41 74.3C77.11 74.56 76.77 75.02 76.24 75.74C74.89 77.62 72.75 80.51 71.16 82.7C69.59 84.86 68.02 87.01 66.49 89.11C66.22 89.46 66.01 89.79 65.77 90.11C65.05 91.15 65.09 91.34 65.52 91.95C65.57 92.02 65.62 92.09 65.67 92.16C75.57 105.68 86.63 120.79 96.71 134.55C97.81 136.06 98.78 137.38 99.83 138.8C99.98 139.01 100.11 139.18 100.25 139.37C100.72 140 100.76 139.91 101.34 139.13C108.03 129.91 114.89 120.43 121.67 111.08C127.68 102.73 131.49 97.63 135.73 91.63C136.04 91.03 135.52 90.52 135.19 89.98C132.71 86.46 127.32 78.9 124.73 75.28C124.45 74.86 124.13 74.48 123.81 74.21H123.79ZM114.15 92.74C113.74 93.04 113.25 92.71 112.84 92.52C109.08 90.47 103.83 87.57 99.41 85.14C95.79 83.15 91.87 80.99 88.79 79.29C88.16 78.92 87.15 78.48 87.79 78.4C92.57 78.31 112.16 78.4 117.85 78.37C118.31 78.39 118.94 78.33 119.18 78.65C119.43 78.87 118.98 80.16 118.74 80.83C117.86 83.28 116.32 87.52 115.23 90.51C114.78 91.73 114.49 92.47 114.16 92.73H114.15V92.74ZM99.84 131.29C99.54 131.21 99.06 130.55 98.24 129.44C95.94 126.3 92.93 122.18 90.83 119.32C90.05 118.24 89.47 117.49 89.25 116.98C88.95 116.32 89.29 116 89.82 115.6C94.33 112.55 106.02 104.78 110.19 102.04C110.56 101.83 110.93 101.59 110.79 102.15C108.32 109.18 104.87 118.39 102.31 125.49C101.52 127.64 100.89 129.39 100.51 130.4C100.36 130.71 100.24 131.34 99.85 131.3L99.84 131.29ZM117.31 96.68C118.76 92.7 120.95 86.6 122.27 83.01C122.93 81.29 123.23 80.45 124.61 82.37C126.09 84.4 127.92 87 129.4 89.14C130.45 90.7 130.53 91.14 129.55 92.41C125.53 97.86 111.87 117.26 108.23 121.92C108.21 121.84 108.35 121.44 108.6 120.72C108.89 119.91 109.33 118.69 109.87 117.22C112.21 110.75 115.03 102.97 117.3 96.7V96.68H117.31ZM79.26 79.27C79.68 79.02 80.11 79.32 80.51 79.52C88.17 83.73 105.99 93.51 110.15 95.8C110.54 96.05 111.28 96.29 110.69 96.75C108.95 97.99 107.16 99.13 104.79 100.73C99.61 104.19 92.24 109.11 87.42 112.32C86.82 112.71 86.37 112.96 85.9 112.32C83.05 108.52 74.29 96.43 71.16 92.13C70.83 91.63 70.65 91.25 70.9 90.67C71.1 90.19 71.58 89.54 72.27 88.58C73.53 86.84 75.45 84.2 76.89 82.23C77.51 81.4 78.68 79.63 79.26 79.27Z" fill="white"/>
</g>
<defs>
<clipPath id="clip0_45_123">
<rect width="88.52" height="88.52" fill="white" transform="translate(56 56)"/>
</clipPath>
</defs>
</svg>
